<?xml version="1.0" encoding="iso-8859-1"?>
<!-- Generator: Adobe Illustrator 16.0.0, SVG Export Plug-In . SVG Version: 6.00 Build 0)  -->
<!DOCTYPE svg PUBLIC "-//W3C//DTD SVG 1.1//EN" "http://www.w3.org/Graphics/SVG/1.1/DTD/svg11.dtd">
<svg version="1.1" id="Capa_1" xmlns="http://www.w3.org/2000/svg" xmlns:xlink="http://www.w3.org/1999/xlink" x="0px" y="0px"
	 width="419.568px" height="419.567px" viewBox="0 0 419.568 419.567" style="enable-background:new 0 0 419.568 419.567;"
	 xml:space="preserve">
<g>
	<g>
		<path d="M294.512,255.488l-3.518,3.519l-36.354-44.141c11.819-20.479,16.977-44.854,14.694-70.896
			c-3.102-35.394-19.681-69.756-46.684-96.759C195.649,20.208,161.286,3.63,125.892,0.528c-36.426-3.19-69.596,8.161-93.399,31.965
			C8.689,56.298-2.662,89.468,0.528,125.893c3.101,35.393,19.681,69.757,46.683,96.758c27.003,27.004,61.365,43.582,96.759,46.684
			c26.042,2.281,50.416-2.875,70.896-14.693l44.14,36.354l-3.519,3.519l125.055,125.054l39.024-39.024L294.512,255.488z
			 M208.746,78.414c8.22,9.805,14.773,20.39,19.617,31.295l-8.416,8.415l-25.456-25.456L208.746,78.414z M202.976,135.096
			l-25.456,25.455l-25.455-25.456l25.455-25.456L202.976,135.096z M160.605,41.701c10.877,4.883,21.431,11.465,31.2,19.712
			L177.52,75.698l-25.455-25.456L160.605,41.701z M135.094,67.213l25.456,25.456l-25.455,25.455l-25.456-25.456L135.094,67.213z
			 M118.124,135.095l-25.456,25.456l-25.456-25.456l25.456-25.456L118.124,135.095z M100.227,32.346l17.896,17.896L92.667,75.698
			L63.821,46.852C74.508,39.098,86.95,34.292,100.227,32.346z M46.852,63.823l28.845,28.845l-25.456,25.456l-17.896-17.896
			C34.293,86.951,39.098,74.509,46.852,63.823z M61.412,191.806c-8.246-9.77-14.828-20.324-19.71-31.201l8.539-8.54l25.456,25.455
			L61.412,191.806z M109.708,228.362c-10.904-4.843-21.489-11.396-31.294-19.616l14.254-14.255l25.456,25.455L109.708,228.362z
			 M135.095,202.977l-25.456-25.456l25.456-25.456l25.456,25.456L135.095,202.977z M169.635,237.517l-17.569-17.57l25.455-25.455
			l28.52,28.519C195.355,230.764,182.912,235.569,169.635,237.517z M223.011,206.04l-28.52-28.52l25.455-25.455l17.571,17.57
			C235.57,182.913,230.763,195.354,223.011,206.04z"/>
		<circle cx="345.784" cy="167.284" r="40"/>
	</g>
</g>
<g>
</g>
<g>
</g>
<g>
</g>
<g>
</g>
<g>
</g>
<g>
</g>
<g>
</g>
<g>
</g>
<g>
</g>
<g>
</g>
<g>
</g>
<g>
</g>
<g>
</g>
<g>
</g>
<g>
</g>
</svg>
